<svg t="1669794453511" class="icon" viewBox="0 0 1024 1024" version="1.1" xmlns="http://www.w3.org/2000/svg" p-id="2880" width="200" height="200"><path d="M187.733333 484.693333c-3.413333 0-6.826667 0-10.24-3.413333C27.306667 389.12 17.066667 47.786667 17.066667 34.133333 17.066667 27.306667 20.48 20.48 27.306667 17.066667s13.653333-3.413333 17.066666 3.413333l238.933334 218.453333c6.826667 6.826667 6.826667 17.066667 0 23.893334s-17.066667 6.826667-23.893334 0l-204.8-187.733334c6.826667 92.16 34.133333 310.613333 143.36 378.88 6.826667 6.826667 6.826667 17.066667 3.413334 23.893334-3.413333 3.413333-10.24 6.826667-13.653334 6.826666z" fill="" p-id="2881"></path><path d="M512 1006.933333c-116.053333 0-358.4-286.72-358.4-426.666666 0-61.44 13.653333-112.64 40.96-163.84 3.413333-6.826667 13.653333-10.24 20.48-6.826667 6.826667 3.413333 10.24 13.653333 6.826667 23.893333-23.893333 47.786667-34.133333 88.746667-34.133334 146.773334 0 119.466667 225.28 392.533333 324.266667 392.533333 10.24 0 17.066667 6.826667 17.066667 17.066667s-6.826667 17.066667-17.066667 17.066666zM273.066667 296.96c-3.413333 0-10.24 0-13.653334-3.413333-3.413333-10.24-3.413333-20.48 0-27.306667 6.826667-3.413333 13.653333-10.24 17.066667-17.066667 30.72-37.546667 78.506667-95.573333 235.52-95.573333 10.24 0 17.066667 6.826667 17.066667 17.066667s-6.826667 17.066667-17.066667 17.066666c-143.36 0-177.493333 44.373333-208.213333 81.92-6.826667 6.826667-13.653333 17.066667-17.066667 20.48-3.413333 3.413333-10.24 6.826667-13.653333 6.826667z" fill="" p-id="2882"></path><path d="M460.8 870.4c-10.24 0-17.066667-6.826667-17.066667-17.066667s6.826667-17.066667 17.066667-17.066666c20.48 0 30.72-17.066667 34.133333-23.893334v-34.133333l-47.786666-51.2c-6.826667-6.826667-6.826667-13.653333-3.413334-20.48 3.413333-3.413333 27.306667-40.96 64.853334-40.96 10.24 0 17.066667 6.826667 17.066666 17.066667s-6.826667 17.066667-17.066666 17.066666-20.48 6.826667-27.306667 17.066667l40.96 44.373333c3.413333 3.413333 3.413333 6.826667 3.413333 10.24v51.2s-17.066667 47.786667-64.853333 47.786667z" fill="" p-id="2883"></path><path d="M563.2 870.4c-47.786667 0-64.853333-47.786667-68.266667-47.786667v-51.2c0-3.413333 0-6.826667 3.413334-10.24l40.96-44.373333c-6.826667-6.826667-17.066667-17.066667-27.306667-17.066667-10.24 0-17.066667-6.826667-17.066667-17.066666s6.826667-17.066667 17.066667-17.066667c37.546667 0 61.44 37.546667 64.853333 40.96 3.413333 6.826667 3.413333 13.653333-3.413333 20.48l-47.786667 51.2v34.133333c3.413333 6.826667 13.653333 23.893333 34.133334 23.893334 10.24 0 17.066667 6.826667 17.066666 17.066666s-3.413333 17.066667-13.653333 17.066667zM68.266667 836.266667c-3.413333 0-10.24 0-13.653334-3.413334-6.826667-6.826667-6.826667-17.066667 0-23.893333 78.506667-78.506667 252.586667-136.533333 324.266667-105.813333 10.24 3.413333 13.653333 13.653333 10.24 23.893333-3.413333 10.24-13.653333 13.653333-23.893333 10.24-54.613333-20.48-215.04 27.306667-290.133334 98.986667H68.266667zM102.4 972.8c-3.413333 0-6.826667 0-6.826667-3.413333-6.826667-3.413333-10.24-13.653333-6.826666-23.893334 64.853333-119.466667 225.28-174.08 293.546666-143.36 10.24 3.413333 13.653333 13.653333 10.24 23.893334-3.413333 10.24-13.653333 13.653333-23.893333 10.24-51.2-20.48-194.56 20.48-252.586667 129.706666 0 3.413333-6.826667 6.826667-13.653333 6.826667zM836.266667 443.733333c-6.826667 0-10.24-3.413333-13.653334-6.826666-3.413333-10.24-3.413333-20.48 6.826667-27.306667 102.4-64.853333 133.12-252.586667 139.946667-334.506667l-208.213334 187.733334c-6.826667 6.826667-17.066667 6.826667-23.893333 0-6.826667-6.826667-6.826667-17.066667 0-23.893334l238.933333-218.453333c3.413333-3.413333 13.653333-6.826667 17.066667-3.413333 6.826667 3.413333 10.24 10.24 10.24 17.066666 0 13.653333-10.24 310.613333-160.426667 406.186667 0 0-3.413333 3.413333-6.826666 3.413333z" fill="" p-id="2884"></path><path d="M512 1006.933333c-10.24 0-17.066667-6.826667-17.066667-17.066666s6.826667-17.066667 17.066667-17.066667c98.986667 0 324.266667-273.066667 324.266667-392.533333 0-58.026667-10.24-102.4-34.133334-146.773334-3.413333-6.826667 0-17.066667 6.826667-23.893333 6.826667-3.413333 17.066667 0 23.893333 6.826667 27.306667 51.2 40.96 102.4 40.96 163.84-3.413333 139.946667-245.76 426.666667-361.813333 426.666666zM750.933333 296.96c-3.413333 0-10.24 0-13.653333-3.413333-6.826667-6.826667-13.653333-13.653333-17.066667-20.48-30.72-37.546667-68.266667-81.92-208.213333-81.92-10.24 0-17.066667-6.826667-17.066667-17.066667s6.826667-17.066667 17.066667-17.066667c157.013333 0 204.8 58.026667 235.52 95.573334 6.826667 6.826667 10.24 13.653333 17.066667 17.066666 6.826667 6.826667 6.826667 17.066667 0 23.893334-3.413333 0-10.24 3.413333-13.653334 3.413333z" fill="" p-id="2885"></path><path d="M955.733333 836.266667c-3.413333 0-10.24 0-13.653333-3.413334-71.68-71.68-235.52-119.466667-290.133333-98.986666-10.24 3.413333-17.066667 0-23.893334-10.24-3.413333-10.24 0-17.066667 10.24-23.893334 71.68-27.306667 249.173333 27.306667 324.266667 105.813334 6.826667 6.826667 6.826667 17.066667 0 23.893333 3.413333 6.826667-3.413333 6.826667-6.826667 6.826667zM921.6 972.8c-6.826667 0-13.653333-3.413333-13.653333-10.24-58.026667-105.813333-201.386667-150.186667-252.586667-129.706667-10.24 3.413333-17.066667 0-23.893333-10.24-3.413333-10.24 0-17.066667 10.24-23.893333 71.68-27.306667 232.106667 23.893333 293.546666 143.36 3.413333 6.826667 0 17.066667-6.826666 23.893333 0 6.826667-3.413333 6.826667-6.826667 6.826667zM580.266667 631.466667c-10.24 0-17.066667-6.826667-17.066667-17.066667 0-85.333333 68.266667-153.6 153.6-153.6 10.24 0 17.066667 6.826667 17.066667 17.066667 0 85.333333-68.266667 153.6-153.6 153.6z m119.466666-136.533334c-51.2 6.826667-92.16 47.786667-98.986666 98.986667 47.786667-6.826667 88.746667-47.786667 98.986666-98.986667zM443.733333 631.466667c-85.333333 0-153.6-68.266667-153.6-153.6 0-10.24 6.826667-17.066667 17.066667-17.066667 85.333333 0 153.6 68.266667 153.6 153.6 0 10.24-6.826667 17.066667-17.066667 17.066667z m-119.466666-136.533334c6.826667 51.2 47.786667 92.16 98.986666 98.986667-6.826667-47.786667-47.786667-88.746667-98.986666-98.986667z" fill="" p-id="2886"></path></svg>